<svg width="40" height="32" viewBox="0 0 40 32" fill="none" xmlns="http://www.w3.org/2000/svg">
<path d="M37.6542 0.503712C33.8486 0.71631 26.2847 1.49014 21.6153 4.30381C21.2931 4.49795 21.1104 4.84317 21.1104 5.2041V30.078C21.1104 30.8676 21.9875 31.3666 22.7271 31.0002C27.5312 28.6199 34.4792 27.9705 37.9146 27.7928C39.0875 27.7319 39.9993 26.8064 39.9993 25.6969V2.60235C40 1.3917 38.9333 0.432619 37.6542 0.503712ZM18.384 4.30381C13.7153 1.49014 6.15139 0.716994 2.34583 0.503712C1.06667 0.432619 0 1.3917 0 2.60235V25.6976C0 26.8077 0.911806 27.7333 2.08472 27.7935C5.52153 27.9712 12.4729 28.6213 17.2771 31.0029C18.0146 31.3687 18.8889 30.8703 18.8889 30.0828V5.1918C18.8889 4.83018 18.7069 4.49863 18.384 4.30381Z" fill="#28A745"/>
</svg>
